<svg width="35" height="35" viewBox="0 0 35 35" fill="none" xmlns="http://www.w3.org/2000/svg">
<path d="M17.8799 34.4805C8.42459 34.4805 0.759766 26.8157 0.759766 17.3604C0.759766 7.90532 8.42459 0.240234 17.8799 0.240234C27.335 0.240234 35 7.90506 35 17.3604C35 26.8157 27.335 34.4805 17.8799 34.4805Z" fill="#AEE69C"/>
<path d="M17.8799 0.240234C16.5302 0.240234 15.2189 0.401346 13.9592 0.696674C21.5241 2.46991 27.1587 9.25484 27.1587 17.3604C27.1587 25.4659 21.5238 32.2509 13.9592 34.0241C15.2189 34.3194 16.5302 34.4805 17.8799 34.4805C27.335 34.4805 35.0001 26.8157 35.0001 17.3604C35.0001 7.90532 27.335 0.240234 17.8799 0.240234Z" fill="#89DAA4"/>
<path d="M10.0408 15.8659C8.95818 15.8659 8.08057 14.9883 8.08057 13.9057V11.0305C8.08057 9.94793 8.95818 9.07031 10.0408 9.07031C11.1234 9.07031 12.001 9.94793 12.001 11.0305V13.9057C12.0013 14.988 11.1237 15.8659 10.0408 15.8659Z" fill="white"/>
<path d="M25.7237 15.8659C24.641 15.8659 23.7634 14.9883 23.7634 13.9057V11.0305C23.7634 9.94793 24.641 9.07031 25.7237 9.07031C26.8063 9.07031 27.6839 9.94793 27.6839 11.0305V13.9057C27.6841 14.988 26.8063 15.8659 25.7237 15.8659Z" fill="white"/>
<path d="M17.8846 28.2487C14.2361 28.2487 11.6766 26.4225 10.7366 25.6286C9.90944 24.9299 9.80541 23.693 10.5044 22.8661C11.2031 22.0392 12.44 21.935 13.2669 22.634C13.8834 23.1548 15.5788 24.3534 17.9853 24.3278C20.2893 24.2948 21.9088 23.1325 22.4982 22.6345C23.325 21.9352 24.5619 22.0392 25.2606 22.8659C25.9596 23.6927 25.8561 24.9296 25.0293 25.6283C23.8982 26.5841 21.2539 28.2487 17.8846 28.2487Z" fill="white"/>
</svg>
