<svg width="48" height="49" viewBox="0 0 48 49" fill="none" xmlns="http://www.w3.org/2000/svg">
<g clip-path="url(#clip0_3703_1466)">
<mask id="mask0_3703_1466" style="mask-type:luminance" maskUnits="userSpaceOnUse" x="0" y="0" width="48" height="49">
<path d="M48 0.919922H0V48.9199H48V0.919922Z" fill="white"/>
</mask>
<g mask="url(#mask0_3703_1466)">
<mask id="mask1_3703_1466" style="mask-type:luminance" maskUnits="userSpaceOnUse" x="0" y="0" width="48" height="49">
<path d="M0 0.919922H48V48.9199H0V0.919922Z" fill="white"/>
</mask>
<g mask="url(#mask1_3703_1466)">
<path d="M4.6875 29.2325C4.6875 32.598 7.41581 35.3262 10.7813 35.3262C14.1467 35.3262 16.875 32.598 16.875 29.2325C16.875 25.867 14.1467 23.1387 10.7813 23.1387C7.41581 23.1387 4.6875 25.867 4.6875 29.2325Z" stroke="#1D1D1D" stroke-width="2.23881" stroke-miterlimit="10" stroke-linecap="round" stroke-linejoin="round"/>
<path d="M1.40625 47.5136H20.1563V44.7012C20.1563 39.5234 15.9589 35.3262 10.7813 35.3262C5.60353 35.3262 1.40625 39.5234 1.40625 44.7012V47.5136Z" stroke="#1D1D1D" stroke-width="2.23881" stroke-miterlimit="10" stroke-linecap="round" stroke-linejoin="round"/>
<path d="M33.1068 35.1386H27.4817C25.9283 35.1386 24.6692 33.8795 24.6692 32.3262V28.5762H35.9192V32.3262C35.9192 33.8795 34.6599 35.1386 33.1068 35.1386Z" stroke="#1D1D1D" stroke-width="2.23881" stroke-miterlimit="10" stroke-linecap="round" stroke-linejoin="round"/>
<path d="M44.782 16.5222L46.593 17.0074" stroke="#1D1D1D" stroke-width="2.23881" stroke-miterlimit="10" stroke-linecap="round" stroke-linejoin="round"/>
<path d="M15.8046 8.75731L13.9934 8.27197" stroke="#1D1D1D" stroke-width="2.23881" stroke-miterlimit="10" stroke-linecap="round" stroke-linejoin="round"/>
<path d="M44.7832 8.75731L46.5944 8.27197" stroke="#1D1D1D" stroke-width="2.23881" stroke-miterlimit="10" stroke-linecap="round" stroke-linejoin="round"/>
<path d="M15.8046 16.5222L13.9934 17.0074" stroke="#1D1D1D" stroke-width="2.23881" stroke-miterlimit="10" stroke-linecap="round" stroke-linejoin="round"/>
<path d="M30.2942 28.5762V16.3887" stroke="#1D1D1D" stroke-width="2.23881" stroke-miterlimit="10" stroke-linecap="round" stroke-linejoin="round"/>
<path d="M30.2941 2.32642C24.5988 2.32642 19.9817 6.94322 19.9817 12.6386C19.9817 14.8096 20.6541 16.8223 21.8009 18.4824C23.646 21.1531 24.6691 24.3039 24.6691 27.5502V28.5762H30.2941H35.9191V27.5502C35.9191 24.3039 36.9424 21.1531 38.7875 18.4824C39.9344 16.8223 40.6067 14.8096 40.6067 12.6386C40.6067 6.94322 35.9897 2.32642 30.2941 2.32642Z" stroke="#1D1D1D" stroke-width="2.23881" stroke-miterlimit="10" stroke-linecap="round" stroke-linejoin="round"/>
<path d="M30.2942 16.3886L34.0442 12.6387" stroke="#1D1D1D" stroke-width="2.23881" stroke-miterlimit="10" stroke-linecap="round" stroke-linejoin="round"/>
<path d="M30.293 16.3886L26.543 12.6387" stroke="#1D1D1D" stroke-width="2.23881" stroke-miterlimit="10" stroke-linecap="round" stroke-linejoin="round"/>
</g>
</g>
</g>
<defs>
<clipPath id="clip0_3703_1466">
<rect width="48" height="48" fill="white" transform="translate(0 0.919922)"/>
</clipPath>
</defs>
</svg>
