<svg width="161" height="160" viewBox="0 0 161 160" fill="none" xmlns="http://www.w3.org/2000/svg">
<path fill-rule="evenodd" clip-rule="evenodd" d="M145.853 29.7227H23.1888C17.3052 29.7227 15.8789 29.5443 14.6309 32.5753V38.2806H145.853V29.7227Z" fill="#656565"/>
<path fill-rule="evenodd" clip-rule="evenodd" d="M145.849 24.7728C145.849 20.046 142.018 16.2148 137.292 16.2148C125.228 16.2148 103.479 16.2148 92.5648 16.2148C88.4712 16.2148 84.6886 18.4085 82.6575 21.9629C79.2886 27.8622 74.5332 36.1834 74.5332 36.1834H145.849V24.7728Z" fill="#656565"/>
<path fill-rule="evenodd" clip-rule="evenodd" d="M155.462 54.0723C155.916 50.8031 154.932 47.4969 152.766 45.0094C150.598 42.519 147.46 41.0898 144.16 41.0898C115.074 41.0898 45.4123 41.0898 16.3266 41.0898C13.0261 41.0898 9.88815 42.519 7.72013 45.0094C5.55496 47.4969 4.57079 50.8031 5.02436 54.0723C7.91696 74.8966 13.531 115.313 16.1184 133.946C16.9028 139.586 21.7238 143.785 27.4206 143.785H133.066C138.763 143.785 143.584 139.586 144.368 133.946C146.956 115.313 152.57 74.8966 155.462 54.0723Z" fill="#DCDCDC"/>
<path fill-rule="evenodd" clip-rule="evenodd" d="M5.98286 60.9757C6.19681 58.5994 7.14959 56.3287 8.74423 54.4973C10.9094 52.0098 14.0473 50.5806 17.3479 50.5806H143.139C146.439 50.5806 149.577 52.0098 151.742 54.4973C153.337 56.3287 154.29 58.5994 154.504 60.9757L155.462 54.0722C155.916 50.8031 154.932 47.4969 152.766 45.0094C150.598 42.519 147.46 41.0898 144.16 41.0898C115.074 41.0898 45.4123 41.0898 16.3266 41.0898C13.0261 41.0898 9.88815 42.519 7.72013 45.0094C5.55496 47.4969 4.57079 50.8031 5.02436 54.0722L5.98286 60.9757Z" fill="#656565"/>
<path fill-rule="evenodd" clip-rule="evenodd" d="M67.4056 115.332C67.4056 112.183 64.8525 109.627 61.7003 109.627C55.3703 109.627 45.212 109.627 38.8791 109.627C35.7298 109.627 33.1738 112.183 33.1738 115.332V121.038C33.1738 124.19 35.7298 126.743 38.8791 126.743H61.7003C64.8525 126.743 67.4056 124.19 67.4056 121.038C67.4056 119.203 67.4056 117.169 67.4056 115.332Z" fill="#656565"/>
<path fill-rule="evenodd" clip-rule="evenodd" d="M110.195 61.7422C93.6639 61.7422 80.2422 75.1639 80.2422 91.695C80.2422 108.226 93.6639 121.648 110.195 121.648C126.726 121.648 140.148 108.226 140.148 91.695C140.148 75.1639 126.726 61.7422 110.195 61.7422ZM110.195 70.3001C122.002 70.3001 131.59 79.8879 131.59 91.695C131.59 103.502 122.002 113.09 110.195 113.09C98.3879 113.09 88.8001 103.502 88.8001 91.695C88.8001 79.8879 98.3879 70.3001 110.195 70.3001Z" fill="#656565"/>
<path fill-rule="evenodd" clip-rule="evenodd" d="M125.789 112.38L152.398 138.99C154.07 140.661 156.78 140.661 158.452 138.99C160.12 137.321 160.12 134.608 158.452 132.939L131.842 106.33C130.17 104.661 127.46 104.661 125.789 106.33C124.12 107.999 124.12 110.711 125.789 112.38Z" fill="#656565"/>
</svg>
